<?xml version="1.0" encoding="utf-8"?>
<!-- Generator: Adobe Illustrator 26.0.1, SVG Export Plug-In . SVG Version: 6.00 Build 0)  -->
<svg version="1.1" xmlns="http://www.w3.org/2000/svg" xmlns:xlink="http://www.w3.org/1999/xlink" x="0px" y="0px"
	 viewBox="0 0 1520 1520" style="enable-background:new 0 0 1520 1520;" xml:space="preserve">
<style type="text/css">
	.st0{font-family:'Roboto-Black';}
	.st1{font-size:123.7657px;}
	.st2{font-size:25.632px;}
	.st3{letter-spacing:29;}
</style>
<g id="Layer_2">
</g>
<g id="Layer_1">
	<g>
		<g>
			<path d="M1065.9,461.2H689.2c-7,0-12.7,5.7-12.7,12.7v281.9c0,7,5.7,12.7,12.7,12.7h7.3c5.4-32.3,33.5-56.9,67.3-56.9
				c33.8,0,61.9,24.6,67.3,56.9h234.9c7,0,12.7-5.7,12.7-12.7V473.9C1078.6,466.9,1073,461.2,1065.9,461.2z"/>
			<path d="M1308.4,659.2l-58.9-114.4c-2.5-4.7-7.3-7.7-12.7-7.7H1108c-7.8,0-14.2,6.4-14.2,14.2v202.9c0,7.8,6.4,14.2,14.2,14.2
				h9.5c5.4-32.3,33.5-56.9,67.3-56.9c33.8,0,61.9,24.6,67.3,56.9h43.7c7.8,0,14.2-6.4,14.2-14.2v-88.5
				C1310,663.4,1309.5,661.2,1308.4,659.2z M1150.7,639.5H1109v-87.2h41.7V639.5z M1158.3,639.5v-87.2h75.9l45.5,87.2H1158.3z"/>
			<path d="M763.8,726.7c-29.3,0-53.1,23.8-53.1,53.1c0,29.3,23.8,53.1,53.1,53.1c29.3,0,53.1-23.8,53.1-53.1
				C816.9,750.5,793.1,726.7,763.8,726.7z M763.8,810.2c-16.8,0-30.3-13.6-30.3-30.3c0-16.8,13.6-30.3,30.3-30.3
				s30.3,13.6,30.3,30.3C794.1,796.6,780.6,810.2,763.8,810.2z"/>
			<path d="M1184.8,726.7c-29.3,0-53.1,23.8-53.1,53.1c0,29.3,23.8,53.1,53.1,53.1s53.1-23.8,53.1-53.1
				C1237.9,750.5,1214.2,726.7,1184.8,726.7z M1184.8,810.2c-16.8,0-30.3-13.6-30.3-30.3c0-16.8,13.6-30.3,30.3-30.3
				c16.8,0,30.3,13.6,30.3,30.3C1215.2,796.6,1201.6,810.2,1184.8,810.2z"/>
		</g>
		<rect x="371.4" y="779.3" transform="matrix(0.9631 -0.269 0.269 0.9631 -192.528 171.0872)" width="313.2" height="17.6"/>
		<path d="M315.6,731.9c-3.5-0.5-6.9-1.2-10.1-2.1l-5-16.9c4.9,2.3,10.6,4,17.1,5c1.9,0.3,3.5,1.3,4.7,2.8c1.1,1.5,1.6,3.4,1.3,5.3
			c-0.2,1.3-0.7,2.4-1.5,3.4c-0.8,1-1.8,1.7-3,2.2C318,731.9,316.8,732.1,315.6,731.9z"/>
		<path d="M530.6,665.3c-0.6,0.2-1.3,0.3-2,0.3c-2.5,0-4.9-1.4-6.2-3.6c-1-1.7-1.2-3.6-0.7-5.4c0.5-1.8,1.7-3.4,3.3-4.3
			c0.5-0.3,1-0.6,1.4-0.8L530.6,665.3z"/>
		<path d="M544.7,713L320,779.2l-14-47.3c2.9,0.8,6,1.4,9.2,1.9c0.4,0.1,0.9,0.1,1.3,0.1c1.1,0,2.2-0.2,3.3-0.6
			c3-1.2,5.2-3.9,5.6-7.1c0.4-2.4-0.2-4.8-1.7-6.7c-1.4-1.9-3.5-3.2-5.9-3.5c-7-1-13-3-18.1-5.5L288.4,672l224.6-66.2l12.9,43.8
			c-0.6,0.4-1.2,0.7-1.8,1.1c-2.1,1.2-3.6,3.1-4.2,5.5c-0.6,2.3-0.3,4.8,0.9,6.8c1.6,2.8,4.6,4.5,7.8,4.5c0.8,0,1.7-0.1,2.5-0.4
			L544.7,713z"/>
		<path d="M638.6,741.9c-1.2,0-2.4-0.2-3.6-0.6c-1.6-0.5-39.9-13.8-56.6-68.1c-1.8-6,1.5-12.4,7.5-14.2s12.4,1.5,14.2,7.5
			c13.1,42.5,41,52.9,42.1,53.3c5.9,2.1,9,8.5,7,14.5C647.7,738.9,643.3,741.9,638.6,741.9z"/>
		<path d="M561.2,632.9c-2.6-9-6.5-15.4-9.5-19.3c0.8-7.9-0.5-13.6-0.7-14.2c-0.9-3.8,1.4-7.7,5.2-8.6c0.6-0.1,1.2-0.2,1.7-0.2
			c3.2,0,6.1,2.1,6.9,5.3C566.9,604.4,567.3,618.6,561.2,632.9z"/>
		<path d="M600.5,671.2c-1.3,9.5-9.5,16.3-18.8,16.3c-0.9,0-1.8-0.1-2.7-0.2c-10.4-1.5-17.6-11.1-16.1-21.4c1.7-12,0.9-21.9-1-30
			c7.3-15.5,7-31.2,4.6-40.3c-1.2-4.8-6.1-7.7-10.9-6.5c-4.8,1.2-7.7,6.1-6.6,10.9c0.1,0.5,1.2,5.1,0.8,11.6
			c-1.5-1.8-2.6-2.6-2.6-2.7c-8.2-6.5-9.7-18.4-3.3-26.6c6.5-8.3,18.4-9.7,26.6-3.3C572.2,580.3,609.2,610,600.5,671.2z"/>
		<path d="M579.9,759.3c-3.4,0-6.8-1.5-9-4.5c-1-1.4-25.1-33.9-8.3-88.2c1.9-6,8.2-9.3,14.2-7.5s9.4,8.2,7.5,14.2
			c-13.2,42.5,4,66.8,4.7,67.8c3.7,5,2.6,12.2-2.4,15.9C584.6,758.5,582.2,759.3,579.9,759.3z"/>
		<path d="M561.2,632.9c-4.8,11.4-13.7,22.9-29,31.7c-0.5,0.3-1,0.5-1.5,0.7c-0.6,0.2-1.3,0.3-2,0.3c-2.5,0-4.9-1.4-6.2-3.6
			c-1-1.7-1.2-3.6-0.7-5.4c0.5-1.8,1.7-3.4,3.3-4.3c0.5-0.3,1-0.6,1.4-0.8c18.7-11.3,24-26.7,25.1-37.8c0.8-7.9-0.5-13.6-0.7-14.2
			c-0.9-3.8,1.4-7.7,5.2-8.6c0.6-0.1,1.2-0.2,1.7-0.2c3.2,0,6.1,2.1,6.9,5.3C566.9,604.4,567.3,618.6,561.2,632.9z"/>
		<path d="M221.4,836.7c-3.8,0-7.5-1.9-9.7-5.3c-3.3-5.3-1.7-12.3,3.6-15.6c1.2-0.8,26.4-17.6,34-60.1c1.1-6.2,7-10.3,13.2-9.2
			c6.2,1.1,10.3,7,9.2,13.2c-9.5,53.1-42.9,74.5-44.3,75.3C225.5,836.2,223.4,836.7,221.4,836.7z"/>
		<path d="M275.5,690c-1.5,4.3-3.1,11.5-2.5,20.8c-10.6-10.9-15.7-23.2-16.7-30.8c-0.5-3.9,2.3-7.4,6.1-7.9c0.3,0,0.6-0.1,0.9-0.1
			c3.5,0,6.6,2.6,7,6.2C270.4,678.3,271.7,683.4,275.5,690z"/>
		<path d="M276.4,770.2c-3,1.7-6.2,2.5-9.3,2.5c-6.6,0-13-3.5-16.5-9.6c-30.5-53.8-6.9-95-5.9-96.7c5.3-9,16.9-12,26-6.7
			c9,5.3,12,16.8,6.8,25.8c-0.1,0.2-0.5,1.1-1.1,2.4c-3-5.6-4-9.8-4-9.9c-0.7-4.9-5.2-8.4-10.1-7.7c-4.9,0.6-8.4,5.1-7.8,10
			c1,8.2,6.8,21.8,18.8,33.4c0.9,8.7,3.8,19.1,10.3,30.7C288.7,753.4,285.5,765,276.4,770.2z"/>
		<path d="M304.8,836.7c-6.3,0-11.3-5-11.4-11.3c0-0.7-0.9-28.2-27.5-67c-3.6-5.2-2.2-12.3,2.9-15.8c5.2-3.5,12.3-2.2,15.8,2.9
			c31.2,45.4,31.5,78.4,31.5,79.8C316.2,831.6,311.1,836.7,304.8,836.7z"/>
		<path d="M323.6,725.9c-0.2,1.3-0.7,2.4-1.5,3.4c-0.8,1-1.8,1.7-3,2.2c-1.1,0.4-2.4,0.6-3.6,0.4c-3.5-0.5-6.9-1.2-10.1-2.1
			c-14.1-3.9-24.7-11-32.5-19c-10.6-10.9-15.7-23.2-16.7-30.8c-0.5-3.9,2.3-7.4,6.1-7.9c0.3,0,0.6-0.1,0.9-0.1c3.5,0,6.6,2.6,7,6.2
			c0,0.1,1.3,5.3,5.1,11.8c4.4,7.5,12,16.9,25,22.8c4.9,2.3,10.6,4,17.1,5c1.9,0.3,3.5,1.3,4.7,2.8
			C323.4,722.1,323.9,724,323.6,725.9z"/>
		<g>
			<path d="M285.8,609.1c-1.4-0.8-2.8-1.4-4.3-1.9c0,0,0,0,0,0C281.7,607.3,283.3,608,285.8,609.1z"/>
			<path d="M272.8,620.1l8.7-13c-4.9-1.6-10.2-1.5-15.4,0.5c-11.7,4.6-17.4,17.8-12.9,29.5c4.6,11.7,17.8,17.5,29.5,12.8
				c9.9-3.9,15.6-14,14.2-24.2c-3.1,0.6-6.4,0.9-9.7,0.9c-5.5,0-11.1-0.9-16.4-3.2l0.8-1.7L272.8,620.1z"/>
			<path d="M313.5,615.4c0.3,0,0.5-0.1,0.7-0.1c-0.6,0.4-1.3,0.9-2.2,1.5c0.1,0,0.3,0,0.4,0c2.2-0.3,3.4-2.5,3.4-2.5
				c0.2-0.5,0.6-0.7,1-0.6c-0.6-0.3-1.8-0.3-3.5-0.1c-10.6,1.4-21.6-2.1-27.5-4.5c1.8,1,3.4,2.3,4.9,3.8
				C296.9,614.8,305.3,616.5,313.5,615.4z"/>
			<path d="M292.9,615.4c1.1,1.5,2.1,3.2,2.8,5.1c0.2,0.6,0.4,1.1,0.6,1.7c6.6-1.2,12.3-3.4,15.8-5.4
				C305.3,617.6,298.3,616.8,292.9,615.4z"/>
			<path d="M296.2,622.1c-0.2-0.6-0.4-1.1-0.6-1.7c-0.7-1.8-1.7-3.5-2.8-5.1c-6-1.5-10.2-3.9-10.7-5.8c-0.9-0.4-1.4-0.7-1.5-0.7
				l1.4,0.3c0,0.1,0,0.3,0.1,0.4c1.7,0.8,4.7,2.1,8.6,3.3c-1.5-1.5-3.1-2.7-4.9-3.8c-2.5-1-4.1-1.8-4.3-1.9c0,0,0,0,0,0l-8.7,13
				C280.5,623.4,288.9,623.4,296.2,622.1z"/>
			<path d="M272.8,620.1l-1.1,1.6l1.6-0.8C273.4,620.9,272.7,620.1,272.8,620.1z"/>
			<path d="M280.6,608.8c0.1,0.1,0.6,0.3,1.5,0.7c0-0.1-0.1-0.3-0.1-0.4L280.6,608.8z"/>
			<path d="M312,616.8c0.9-0.5,1.7-1,2.2-1.5c-0.2,0-0.4,0-0.7,0.1c-8.2,1.1-16.6-0.6-22.9-2.6c0.8,0.8,1.5,1.7,2.2,2.6
				C298.3,616.8,305.3,617.6,312,616.8z"/>
			<path d="M282.1,609.6c0.5,2,4.8,4.3,10.7,5.8c-0.7-0.9-1.4-1.8-2.2-2.6C286.9,611.6,283.8,610.3,282.1,609.6z"/>
			<path d="M315.8,614.3c0,0-1.2,2.2-3.4,2.5c-0.1,0-0.3,0-0.4,0c-3.5,2-9.2,4.2-15.8,5.4c0.2,0.6,0.3,1.2,0.5,1.8
				c13.1-2.4,23-8.9,20.1-10.3C316.5,613.6,316.1,613.8,315.8,614.3z"/>
			<path d="M272.8,620.1c-0.1,0,0.6,0.8,0.5,0.8l-1.6,0.8c8.1,3.5,17.1,3.6,25,2.2c-0.1-0.6-0.3-1.2-0.5-1.8
				C288.9,623.4,280.5,623.4,272.8,620.1z"/>
		</g>
		<g>
			<path d="M523.3,530.6c1.4-0.8,2.8-1.4,4.3-1.9c0,0,0,0,0,0C527.4,528.8,525.8,529.6,523.3,530.6z"/>
			<path d="M536.3,541.7l-8.7-13c4.8-1.6,10.2-1.5,15.4,0.5c11.7,4.6,17.5,17.8,12.8,29.5c-4.6,11.7-17.8,17.5-29.5,12.8
				c-9.9-3.9-15.6-14-14.2-24.2c3.1,0.6,6.4,0.9,9.7,0.9c5.5,0,11.1-0.9,16.4-3.2l-0.8-1.7L536.3,541.7z"/>
			<path d="M495.5,537c-0.3,0-0.5-0.1-0.7-0.1c0.6,0.4,1.3,0.9,2.2,1.5c-0.1,0-0.3,0-0.4,0c-2.2-0.3-3.4-2.5-3.4-2.5
				c-0.2-0.5-0.6-0.7-1-0.6c0.6-0.3,1.8-0.3,3.5-0.1c10.6,1.4,21.6-2.1,27.5-4.5c-1.8,1-3.4,2.3-4.9,3.8
				C512.2,536.3,503.8,538.1,495.5,537z"/>
			<path d="M516.2,537c-1.1,1.5-2.1,3.2-2.8,5.1c-0.2,0.6-0.4,1.1-0.6,1.7c-6.6-1.2-12.3-3.4-15.8-5.4
				C503.8,539.2,510.7,538.4,516.2,537z"/>
			<path d="M512.8,543.7c0.2-0.6,0.4-1.1,0.6-1.7c0.7-1.8,1.7-3.5,2.8-5.1c6-1.5,10.2-3.9,10.7-5.8c0.9-0.4,1.4-0.7,1.5-0.7
				l-1.4,0.3c0,0.1,0,0.3-0.1,0.4c-1.7,0.8-4.7,2.1-8.6,3.3c1.5-1.5,3.1-2.7,4.9-3.8c2.5-1,4.1-1.8,4.3-1.9c0,0,0,0,0,0l8.7,13
				C528.6,545,520.2,545,512.8,543.7z"/>
			<path d="M536.3,541.7l1.1,1.6l-1.6-0.8C535.7,542.5,536.4,541.7,536.3,541.7z"/>
			<path d="M528.4,530.4c-0.1,0.1-0.6,0.3-1.5,0.7c0-0.1,0.1-0.3,0.1-0.4L528.4,530.4z"/>
			<path d="M497.1,538.4c-0.9-0.5-1.7-1-2.2-1.5c0.2,0,0.4,0,0.7,0.1c8.2,1.1,16.6-0.6,22.8-2.6c-0.8,0.8-1.5,1.7-2.2,2.6
				C510.7,538.4,503.8,539.2,497.1,538.4z"/>
			<path d="M527,531.1c-0.5,2-4.8,4.3-10.7,5.8c0.7-0.9,1.4-1.8,2.2-2.6C522.2,533.2,525.2,531.9,527,531.1z"/>
			<path d="M493.2,535.8c0,0,1.2,2.2,3.4,2.5c0.1,0,0.3,0,0.4,0c3.5,2,9.2,4.2,15.8,5.4c-0.2,0.6-0.3,1.2-0.5,1.8
				c-13.1-2.4-23-8.9-20.1-10.3C492.6,535.2,493,535.3,493.2,535.8z"/>
			<path d="M536.3,541.7c0.1,0-0.6,0.8-0.5,0.8l1.6,0.8c-8.2,3.5-17.2,3.6-25,2.2c0.1-0.6,0.3-1.2,0.5-1.8
				C520.2,545,528.6,545,536.3,541.7z"/>
		</g>
	</g>
	<g id="Layer_2_00000037670148430945079210000016193213974243496372_">
	</g>
	<text transform="matrix(1 0 0 1 209.9829 1000.6738)" class="st0 st1">AQUA FUMIGATION</text>
	<text transform="matrix(1 0 0 1 209.9985 1058.2188)" class="st0 st2 st3">THE FUMIGATION SPECIALISTS</text>
</g>
</svg>
